<?xml version="1.0" standalone="no"?>
<!DOCTYPE svg PUBLIC "-//W3C//DTD SVG 20010904//EN"
 "http://www.w3.org/TR/2001/REC-SVG-20010904/DTD/svg10.dtd">
<svg version="1.0" xmlns="http://www.w3.org/2000/svg"
 width="400.000000pt" height="400.000000pt" viewBox="0 0 400.000000 400.000000"
 preserveAspectRatio="xMidYMid meet">

<g transform="translate(0.000000,400.000000) scale(0.100000,-0.100000)"
fill="#000000" stroke="none">
<path d="M688 3958 c0 -24 0 -50 1 -58 2 -8 7 -136 12 -285 5 -148 11 -306 13
-350 3 -44 6 -167 8 -273 3 -214 2 -211 75 -197 34 6 34 7 32 50 -4 53 1 59
34 44 29 -13 42 -51 27 -79 -8 -15 -8 -20 3 -20 8 0 19 -11 25 -25 16 -35 66
-368 66 -438 0 -36 3 -52 9 -45 5 9 7 3 4 -15 -2 -15 0 -30 4 -33 5 -3 9 -18
9 -34 0 -15 6 -61 14 -101 19 -99 26 -160 16 -154 -7 4 -19 68 -23 122 -1 11
-5 19 -9 16 -5 -2 -8 8 -8 24 -1 45 -10 106 -20 128 -5 11 -18 85 -29 165 -12
80 -29 185 -38 233 -15 80 -19 90 -42 98 -14 5 -34 14 -43 19 -25 14 -38 12
-38 -6 0 -10 -5 -14 -15 -10 -12 4 -14 0 -10 -17 3 -12 14 -80 25 -152 11 -71
31 -200 45 -285 44 -271 66 -434 61 -450 -2 -8 -4 0 -5 18 -1 24 -6 32 -19 32
-28 0 -43 40 -25 67 12 18 13 29 3 57 -6 20 -9 40 -6 45 6 9 -15 21 -49 28
-11 2 -24 8 -30 14 -7 7 -4 8 8 4 10 -4 17 -2 17 4 0 6 -3 11 -7 11 -13 0 -32
49 -22 55 5 4 5 13 0 23 -5 9 -18 38 -30 64 -12 26 -36 57 -52 69 l-31 22 -71
-22 c-38 -11 -72 -22 -73 -24 -2 -1 1 -29 5 -62 6 -40 5 -64 -2 -73 -8 -11 -7
-16 7 -24 15 -8 16 -12 5 -19 -12 -8 -12 -11 1 -19 13 -8 13 -11 1 -19 -11 -7
-10 -11 5 -20 15 -9 16 -12 5 -20 -11 -7 -10 -11 5 -20 15 -9 16 -12 5 -20
-11 -7 -11 -9 0 -13 12 -4 12 -7 0 -21 -12 -15 -11 -17 3 -17 9 0 16 -4 16
-10 0 -5 -4 -10 -10 -10 -5 0 -10 -4 -10 -10 0 -5 8 -10 17 -10 15 0 15 -1 -1
-13 -18 -13 -18 -14 -1 -21 14 -5 15 -9 5 -21 -10 -12 -10 -15 0 -15 7 0 10
-7 6 -15 -3 -9 1 -18 11 -22 14 -6 14 -7 -1 -19 -16 -11 -16 -13 1 -23 17 -10
17 -10 -2 -11 -18 0 -18 -2 5 -20 19 -15 21 -20 9 -20 -9 0 -20 -7 -23 -16 -5
-12 -1 -14 17 -9 19 5 20 4 5 -5 -10 -6 -18 -18 -18 -25 0 -12 -18 -15 -93
-15 -57 0 -97 -4 -105 -12 -8 -8 -15 -8 -27 2 -13 10 -24 11 -56 1 -22 -7 -66
-11 -97 -10 -31 1 -79 -3 -106 -10 -36 -9 -52 -9 -62 0 -8 6 -11 15 -8 20 3 5
0 9 -5 9 -8 0 -11 -250 -11 -820 l0 -820 520 0 c442 0 520 2 520 14 0 19 19
24 55 15 141 -34 205 -39 205 -14 0 17 -33 35 -108 59 -28 10 -50 22 -46 27
21 34 229 -55 217 -93 -2 -5 591 -8 1317 -8 l1320 0 0 2000 0 2000 -255 0
-255 0 -2 -587 c-1 -324 -2 -685 -3 -803 l0 -214 34 -7 c38 -8 77 -41 67 -58
-5 -7 -14 -4 -28 9 -16 15 -25 17 -35 8 -11 -8 -12 -7 -7 6 10 25 -25 32 -60
12 -17 -10 -25 -12 -18 -5 19 20 15 29 -13 29 -13 0 -28 8 -33 18 -6 10 -9
312 -8 727 0 391 -2 690 -5 665 -5 -36 -6 -29 -7 37 -1 45 -5 84 -9 86 -5 3
-7 -56 -7 -131 1 -76 0 -126 -3 -112 -9 51 -12 54 -33 35 -20 -18 -20 -17 -20
13 0 18 5 32 10 32 6 0 10 18 10 40 0 22 -4 40 -10 40 -18 0 -12 92 8 106 16
12 16 14 -5 33 -29 27 -32 26 -31 -6 0 -16 -3 -349 -7 -741 -7 -609 -6 -715 6
-723 9 -6 -9 -9 -52 -9 -76 0 -90 10 -109 80 -18 63 -17 28 -18 758 -2 581 -4
662 -17 662 -10 0 -15 -11 -16 -37 l-2 -38 -7 40 c-4 22 -8 31 -9 20 -1 -17
-3 -18 -11 -5 -8 12 -10 9 -10 -12 0 -16 3 -28 8 -28 4 0 8 -23 9 -52 1 -33
-2 -46 -8 -37 -6 10 -9 1 -9 -26 -1 -37 -2 -39 -15 -21 -11 14 -15 46 -15 109
0 56 -4 86 -10 82 -13 -8 -13 -198 -1 -210 6 -6 6 -28 1 -55 -5 -25 -9 -236
-10 -470 0 -369 2 -428 16 -448 30 -43 -1 -22 -98 67 -54 50 -59 61 -23 61 14
0 25 5 25 11 0 8 -14 10 -44 6 -35 -5 -50 -2 -67 12 -36 29 -11 51 57 51 30 0
54 5 54 10 0 6 -30 10 -69 10 -38 0 -76 3 -84 6 -12 4 -14 0 -10 -14 7 -30
-12 -35 -65 -18 -26 8 -75 18 -109 22 -56 6 -63 4 -75 -15 -7 -12 -32 -33 -55
-47 -36 -20 -50 -23 -95 -18 -53 5 -53 5 -77 -33 -30 -46 -60 -72 -83 -73 -10
0 -25 -9 -35 -19 -10 -11 -29 -21 -43 -23 -17 -2 -24 -8 -22 -20 2 -12 -4 -18
-17 -18 -11 0 -27 -13 -38 -30 -10 -18 -26 -30 -38 -30 -12 0 -26 -5 -33 -12
-9 -9 -12 -7 -12 10 0 24 -9 30 -55 34 -26 3 -30 0 -28 -19 2 -13 -2 -23 -7
-23 -19 0 -49 -39 -44 -58 8 -29 73 -24 93 8 9 14 24 26 34 28 27 5 21 -33 -8
-52 -14 -9 -23 -21 -20 -26 4 -6 -1 -10 -9 -10 -9 0 -16 -4 -16 -9 0 -5 -13
-11 -29 -13 -26 -4 -29 -2 -20 13 13 25 12 27 -21 34 -28 6 -30 10 -30 50 0
24 5 47 10 50 18 11 10 44 -15 61 -24 16 -26 28 -10 81 6 17 55 -4 55 -23 0
-7 6 -19 13 -26 7 -7 16 -21 20 -31 6 -16 8 -17 31 -2 16 11 26 13 31 6 9 -16
32 -13 39 5 5 14 -1 15 -39 12 -50 -4 -52 -1 -28 49 12 25 21 33 35 30 13 -4
18 0 18 14 0 10 4 19 10 19 5 0 7 6 4 14 -3 9 4 15 24 18 27 4 29 2 18 -14 -6
-10 -14 -18 -18 -18 -5 0 -8 -9 -8 -19 0 -15 6 -19 28 -17 26 3 27 6 28 57 1
46 -3 57 -25 76 -21 17 -24 24 -13 34 15 16 16 71 0 87 -23 23 -31 12 -25 -32
5 -36 3 -47 -14 -62 -18 -16 -21 -16 -35 -2 -13 13 -13 22 -1 76 15 64 9 82
-11 37 -6 -14 -16 -25 -22 -25 -5 0 -10 -9 -10 -20 0 -27 -5 -25 -39 12 -34
39 -28 62 19 71 30 7 37 21 21 45 -6 10 -10 7 -15 -12 -7 -27 -36 -37 -36 -12
0 19 -27 46 -46 46 -19 0 -18 -54 1 -70 8 -7 15 -23 15 -36 0 -13 5 -24 10
-24 6 0 20 -15 30 -33 11 -19 30 -39 43 -46 17 -9 22 -21 22 -51 0 -24 -4 -40
-11 -40 -7 0 -10 8 -7 19 4 16 -2 21 -31 26 -21 4 -36 13 -36 21 0 8 5 14 11
14 6 0 5 6 -3 15 -31 34 -38 45 -38 57 0 15 -54 48 -79 48 -10 0 -26 -9 -36
-20 -18 -20 -17 -20 8 -20 15 0 27 -5 27 -10 0 -7 6 -7 19 0 29 15 43 12 39
-7 -2 -10 -10 -17 -16 -16 -7 2 -12 -2 -12 -8 0 -6 6 -9 14 -6 8 3 17 -1 20
-10 4 -9 -1 -17 -11 -19 -12 -4 -19 -16 -20 -40 -3 -33 10 -47 20 -21 3 8 7 6
12 -6 10 -24 3 -29 -28 -22 -13 4 -29 17 -36 31 -6 13 -17 24 -26 24 -15 0
-17 -7 -19 -60 -1 -15 -7 -25 -16 -25 -11 0 -15 10 -14 38 1 33 0 35 -11 20
-7 -10 -15 -28 -19 -40 -10 -32 -35 -28 -81 12 -45 40 -70 44 -85 15 -14 -25
-30 -17 -23 10 3 12 -2 29 -11 39 -18 20 -6 39 16 25 7 -4 8 -3 4 4 -4 7 -18
12 -31 12 -13 0 -27 5 -30 10 -3 6 -13 10 -21 10 -9 0 -29 14 -46 30 -31 32
-48 38 -48 18 0 -6 -7 -20 -17 -30 -15 -17 -15 -18 0 -18 10 0 17 -4 17 -9 0
-15 -32 -22 -47 -10 -11 9 -19 7 -38 -11 -13 -13 -22 -27 -19 -31 8 -14 56
-10 88 6 37 19 60 12 51 -15 -5 -14 -2 -20 9 -20 9 0 16 -4 16 -10 0 -13 -102
-2 -116 13 -14 14 -26 7 -14 -8 23 -28 -8 -16 -40 15 -30 29 -67 32 -56 3 7
-18 -17 -27 -49 -19 -26 7 -31 21 -15 46 8 12 13 13 30 2 11 -7 20 -8 20 -3 0
5 14 14 31 22 34 14 88 58 73 60 -59 7 -74 7 -79 -1 -3 -6 -14 -10 -24 -10
-10 0 -23 -11 -29 -25 -15 -32 -49 -33 -63 -1 -10 22 -47 42 -57 31 -8 -8 9
-75 18 -75 6 0 10 -9 10 -20 0 -24 -35 -28 -48 -5 -5 10 -15 13 -25 9 -21 -8
-21 -18 -1 -39 13 -13 14 -19 5 -28 -9 -9 -16 -6 -31 13 -22 29 -32 120 -12
113 14 -6 16 13 2 22 -5 3 -10 17 -10 30 0 13 5 27 10 30 6 3 10 14 10 25 0
11 10 20 26 24 15 4 28 6 30 4 1 -2 -1 -20 -5 -41 -12 -52 13 -50 27 2 7 32 7
41 -4 45 -22 8 -16 42 9 54 20 10 21 11 2 11 -25 0 -65 -32 -65 -53 0 -12 -6
-15 -24 -10 -21 5 -24 3 -19 -14 2 -11 1 -22 -4 -25 -16 -10 -6 46 10 58 9 7
14 14 12 17 -3 3 0 20 6 38 10 29 10 35 -6 47 -21 14 -24 25 -26 98 -1 28 -5
55 -8 60 -3 6 -6 36 -6 67 -1 32 3 52 7 45 6 -9 8 -9 8 1 0 6 -9 21 -20 32
-23 23 -27 45 -7 37 10 -4 13 7 13 46 -1 44 -5 54 -23 62 -20 8 -23 17 -23 63
0 32 4 51 10 47 5 -3 7 -19 4 -34 -4 -16 -1 -32 5 -35 11 -7 16 28 13 82 0 14
3 20 10 16 6 -4 8 -3 5 3 -9 14 -47 24 -47 12 0 -5 -4 -9 -10 -9 -5 0 -10 18
-10 40 0 33 -3 40 -20 40 -17 0 -20 -7 -22 -42z m2849 -70 c-3 -8 -6 -5 -6 6
-1 11 2 17 5 13 3 -3 4 -12 1 -19z m-472 -513 c0 -222 -3 -401 -7 -398 -5 2
-8 -1 -8 -6 0 -6 5 -11 11 -11 12 0 9 -219 -2 -226 -4 -2 -13 4 -20 13 -8 9
-9 14 -2 10 8 -5 11 23 10 110 -1 65 0 132 2 148 7 72 -1 405 -11 411 -7 4 -7
9 0 13 7 4 8 20 3 44 -6 23 -5 37 1 37 5 0 6 10 3 21 -11 34 -12 212 -2 232 5
10 12 16 15 12 4 -4 7 -188 7 -410z m-2308 248 c-2 -16 -4 -3 -4 27 0 30 2 43
4 28 2 -16 2 -40 0 -55z m2577 -8 c3 -9 0 -15 -9 -15 -8 0 -15 7 -15 15 0 8 4
15 9 15 5 0 11 -7 15 -15z m-2557 -27 c-3 -7 -5 -2 -5 12 0 14 2 19 5 13 2 -7
2 -19 0 -25z m2583 -23 c0 -8 -4 -15 -9 -15 -13 0 -22 16 -14 24 11 11 23 6
23 -9z m-363 -107 c-3 -7 -5 -2 -5 12 0 14 2 19 5 13 2 -7 2 -19 0 -25z m360
-40 c-3 -8 -6 -5 -6 6 -1 11 2 17 5 13 3 -3 4 -12 1 -19z m-2537 -168 c0 -5
-5 -10 -11 -10 -5 0 -7 5 -4 10 3 6 8 10 11 10 2 0 4 -4 4 -10z m2547 -72 c-3
-8 -6 -5 -6 6 -1 11 2 17 5 13 3 -3 4 -12 1 -19z m-2042 -128 c10 -16 -5 -50
-21 -50 -15 0 -18 18 -8 44 7 18 20 21 29 6z m-210 -80 c-3 -5 3 -11 12 -14
11 -3 8 -4 -7 -3 -15 1 -26 9 -28 19 -2 13 1 16 12 12 9 -3 14 -10 11 -14z
m1340 -20 c-3 -6 -20 -17 -37 -26 -23 -12 -29 -13 -26 -2 4 12 44 38 61 38 5
0 5 -5 2 -10z m-1221 -29 c3 -5 -1 -14 -9 -21 -8 -7 -15 -23 -15 -36 0 -21 -2
-22 -30 -13 -24 9 -30 17 -30 40 0 29 22 41 35 19 9 -15 25 -12 25 5 0 16 16
20 24 6z m276 -7 c0 -9 -5 -14 -12 -12 -18 6 -21 28 -4 28 9 0 16 -7 16 -16z
m36 -25 c3 -6 1 -16 -5 -22 -9 -9 -14 -8 -21 3 -9 15 -4 30 10 30 5 0 12 -5
16 -11z m-460 -25 c13 -14 24 -32 24 -40 0 -7 7 -14 15 -14 8 0 15 -5 15 -11
0 -8 -15 -10 -45 -6 -55 6 -62 11 -44 33 11 14 10 19 -9 34 -28 23 -28 30 -1
30 12 0 32 -11 45 -26z m-118 -16 c-1 -39 -32 -77 -42 -52 -10 26 -7 47 11 66
23 26 32 22 31 -14z m652 -8 c0 -5 -7 -10 -16 -10 -8 0 -12 5 -9 10 3 6 10 10
16 10 5 0 9 -4 9 -10z m-330 -19 c0 -6 -4 -13 -10 -16 -5 -3 -10 1 -10 9 0 9
5 16 10 16 6 0 10 -4 10 -9z m874 -7 c3 -8 2 -12 -4 -9 -6 3 -10 10 -10 16 0
14 7 11 14 -7z m-504 -4 c0 -5 6 -10 13 -10 8 0 22 -9 32 -20 10 -11 24 -20
32 -20 7 0 13 -2 13 -4 0 -2 3 -12 6 -21 6 -16 5 -16 -27 0 -57 29 -109 85
-79 85 6 0 10 -4 10 -10z m-400 -41 c0 -5 -11 -16 -25 -25 -28 -18 -35 -64
-10 -64 8 0 15 -4 15 -9 0 -5 -7 -8 -16 -7 -9 0 -21 -7 -28 -17 -13 -21 5 -37
42 -37 18 0 22 6 22 29 0 17 5 33 10 36 14 9 40 -13 50 -41 11 -29 55 -36 76
-13 21 23 34 24 34 4 0 -8 -4 -15 -10 -15 -5 0 -10 -9 -10 -19 0 -27 -17 -35
-28 -14 -10 16 -31 18 -167 10 -11 0 -35 0 -52 1 -30 2 -33 5 -33 33 0 26 3
31 20 26 11 -3 18 -2 15 3 -3 4 2 13 10 20 8 7 12 17 8 24 -4 6 -8 13 -9 16 0
3 -4 13 -9 23 -10 24 -1 31 24 17 18 -9 22 -7 31 14 6 17 14 24 25 20 8 -3 15
-10 15 -15z m330 11 c0 -5 -9 -14 -20 -20 -15 -8 -20 -8 -20 3 0 8 3 17 7 20
10 10 33 8 33 -3z m-54 -21 c3 -6 2 -15 -4 -21 -6 -6 -8 -18 -5 -27 3 -12 1
-11 -11 3 -9 11 -16 28 -16 38 0 20 25 25 36 7z m629 1 c3 -5 1 -10 -4 -10 -6
0 -11 5 -11 10 0 6 2 10 4 10 3 0 8 -4 11 -10z m-565 -10 c0 -5 -5 -10 -11
-10 -5 0 -7 5 -4 10 3 6 8 10 11 10 2 0 4 -4 4 -10z m-226 -31 c-3 -5 -10 -7
-15 -3 -5 3 -7 10 -3 15 3 5 10 7 15 3 5 -3 7 -10 3 -15z m106 11 c0 -5 -2
-10 -4 -10 -3 0 -8 5 -11 10 -3 6 -1 10 4 10 6 0 11 -4 11 -10z m-618 -18 c-2
-14 8 -83 44 -303 13 -80 33 -210 45 -290 11 -79 28 -184 36 -234 15 -98 33
-224 36 -267 1 -16 5 -28 10 -28 4 0 7 -13 7 -28 0 -38 28 -229 40 -267 14
-47 23 -173 11 -154 -11 17 -52 254 -53 299 0 14 -4 30 -8 35 -4 6 -11 32 -14
58 -4 27 -9 56 -11 65 -1 10 -8 53 -15 97 -7 44 -13 87 -15 95 -7 36 -25 141
-35 210 -7 41 -18 109 -26 150 -24 131 -55 311 -71 420 -8 58 -22 112 -30 122
-13 14 -12 17 4 27 22 13 49 9 45 -7z m791 -41 c-9 -12 -25 20 -18 36 7 16 9
15 15 -7 4 -14 5 -27 3 -29z m-233 22 c0 -5 -13 -16 -30 -25 -32 -18 -50 -7
-30 17 13 15 60 21 60 8z m1075 -3 c3 -5 -1 -10 -9 -10 -8 0 -18 5 -21 10 -3
6 1 10 9 10 8 0 18 -4 21 -10z m-783 -25 c6 -31 -14 -51 -31 -31 -9 11 -10 20
-1 35 14 28 27 26 32 -4z m-262 -104 c0 -11 -39 -41 -53 -41 -11 0 35 50 46
50 4 0 7 -4 7 -9z m454 -6 c3 -9 0 -15 -9 -15 -8 0 -15 7 -15 15 0 8 4 15 9
15 5 0 11 -7 15 -15z m-710 -11 c62 -9 60 -30 -5 -37 -59 -7 -69 -4 -69 24 0
21 6 22 74 13z m541 -14 c3 -5 2 -10 -4 -10 -5 0 -13 5 -16 10 -3 6 -2 10 4
10 5 0 13 -4 16 -10z m152 -36 c-3 -3 -12 -4 -19 -1 -8 3 -5 6 6 6 11 1 17 -2
13 -5z m-42 -14 c-3 -5 -11 -10 -16 -10 -6 0 -7 5 -4 10 3 6 11 10 16 10 6 0
7 -4 4 -10z m71 -9 c-3 -5 -18 -11 -33 -14 -26 -5 -26 -4 -8 9 21 15 49 19 41
5z m-676 -21 c0 -5 -11 -10 -25 -10 -14 0 -25 5 -25 10 0 6 11 10 25 10 14 0
25 -4 25 -10z m10 -47 c-1 -27 -22 -37 -75 -37 -57 1 -83 13 -71 33 8 12 146
15 146 4z m844 -2 c3 -5 26 -12 51 -15 48 -8 62 -19 48 -39 -5 -7 -10 -28 -12
-48 -1 -32 2 -38 26 -45 16 -4 32 -8 37 -8 22 -2 14 -25 -18 -49 -24 -19 -33
-32 -29 -46 4 -17 -1 -19 -49 -17 l-53 1 -13 60 c-7 33 -17 68 -23 77 -10 20
-12 121 -2 131 9 10 31 9 37 -2z m-621 -44 l19 -38 31 32 c28 30 31 31 44 14
17 -24 16 -32 -2 -39 -8 -3 -15 -12 -15 -20 0 -8 -6 -17 -12 -20 -10 -5 -10
-7 0 -12 18 -9 17 -124 -2 -124 -15 0 -32 53 -21 70 7 12 -12 50 -25 50 -6 0
-10 -7 -10 -15 0 -11 -12 -14 -47 -13 -56 0 -68 5 -54 22 6 7 12 27 13 45 1
18 6 35 11 38 4 3 12 16 18 30 12 32 28 26 52 -20z m267 22 c0 -5 -4 -9 -10
-9 -5 0 -10 7 -10 16 0 8 5 12 10 9 6 -3 10 -10 10 -16z m260 -55 c0 -14 -4
-23 -10 -19 -5 3 -10 15 -10 26 0 10 5 19 10 19 6 0 10 -12 10 -26z m1540 -34
c0 -5 -5 -10 -11 -10 -5 0 -7 5 -4 10 3 6 8 10 11 10 2 0 4 -4 4 -10z m-1692
-62 c19 -19 14 -30 -10 -26 -13 2 -24 11 -26 21 -4 20 18 23 36 5z m1986 -7
c3 -4 -6 -6 -19 -3 -14 2 -25 6 -25 8 0 8 39 4 44 -5z m-2186 -33 c-5 -16 -48
-24 -48 -9 0 8 17 16 43 20 5 0 7 -5 5 -11z m88 -173 c-5 -15 -46 -22 -46 -8
0 4 8 28 17 52 l17 45 9 -37 c5 -20 6 -44 3 -52z m473 34 c6 -18 11 -33 11
-34 0 -1 -13 0 -30 3 -32 5 -33 6 -24 40 9 32 30 27 43 -9z m63 -51 c4 -89 0
-130 -13 -123 -5 4 -9 19 -9 35 0 25 -4 29 -22 27 -13 -1 -26 -6 -30 -12 -4
-5 -8 3 -8 18 0 16 7 30 15 33 14 6 14 8 -1 18 -14 10 -11 12 16 10 31 -2 32
-1 28 32 -3 22 0 34 8 34 8 0 14 -24 16 -72z m-422 31 c0 -6 -4 -7 -10 -4 -5
3 -10 11 -10 16 0 6 5 7 10 4 6 -3 10 -11 10 -16z m-420 -4 c0 -8 -4 -15 -9
-15 -13 0 -22 16 -14 24 11 11 23 6 23 -9z m570 5 c0 -5 7 -10 16 -10 24 0 12
-34 -13 -38 -22 -3 -40 28 -28 48 8 13 25 13 25 0z m-469 -41 c16 -23 19 -33
10 -42 -6 -6 -11 -20 -11 -31 0 -11 -7 -28 -17 -38 -15 -17 -15 -18 0 -18 10
0 17 5 17 10 0 6 4 10 9 10 19 0 -12 -62 -36 -73 -19 -8 -23 -16 -18 -34 8
-33 -8 -28 -24 7 -10 25 -16 28 -27 19 -18 -14 -18 -4 -2 56 7 25 16 45 21 45
4 0 6 -4 2 -9 -3 -5 -1 -12 4 -15 13 -9 21 20 15 53 -5 24 17 91 31 91 2 0 13
-14 26 -31z m285 16 c-19 -15 -19 -15 2 -15 34 0 44 -37 33 -123 -1 -5 -10 -5
-21 -2 -12 4 -26 0 -36 -9 -23 -24 -36 -9 -20 22 8 15 13 48 12 72 -4 58 1 70
28 70 21 -1 21 -1 2 -15z m224 -75 c0 -5 -4 -10 -10 -10 -5 0 -10 5 -10 10 0
6 5 10 10 10 6 0 10 -4 10 -10z m100 -1 c0 -5 -7 -12 -15 -15 -8 -4 -15 -12
-15 -20 0 -8 -3 -14 -8 -14 -11 0 -33 39 -28 49 7 11 66 12 66 0z m-1082 -40
c-3 -20 -5 -19 -9 9 -3 20 -2 29 4 23 5 -5 7 -19 5 -32z m688 -42 c-3 -34 -5
-65 -5 -68 -1 -4 -12 -9 -27 -12 -21 -4 -25 -1 -22 17 1 11 -1 26 -5 32 -9 15
11 76 31 91 25 21 33 4 28 -60z m-110 38 c4 -8 1 -21 -5 -29 -8 -9 -8 -22 -2
-39 9 -22 7 -27 -10 -32 -27 -9 -36 1 -22 24 9 14 9 22 0 31 -9 10 -9 14 1 17
6 3 12 13 12 24 0 23 18 25 26 4z m294 -13 c0 -5 -5 -13 -12 -20 -9 -9 -9 -12
0 -12 7 0 12 -12 12 -26 0 -17 -4 -23 -12 -19 -7 4 -6 1 3 -7 11 -9 14 -24 11
-51 -6 -55 -19 -54 -26 3 -4 27 -11 52 -16 55 -8 5 -8 41 -1 98 1 10 41 -11
41 -21z m38 -23 c-23 -15 -33 9 -12 32 l19 21 3 -22 c2 -13 -2 -26 -10 -31z
m195 36 c1 -5 -6 -11 -15 -13 -11 -2 -18 3 -18 13 0 17 30 18 33 0z m64 -17
c-3 -8 -6 -5 -6 6 -1 11 2 17 5 13 3 -3 4 -12 1 -19z m-987 -14 c0 -8 -4 -14
-10 -14 -5 0 -10 9 -10 21 0 11 5 17 10 14 6 -3 10 -13 10 -21z m952 -6 c-9
-9 -12 -7 -12 12 0 19 3 21 12 12 9 -9 9 -15 0 -24z m-772 18 c0 -3 -4 -8 -10
-11 -5 -3 -10 -1 -10 4 0 6 5 11 10 11 6 0 10 -2 10 -4z m873 -20 c12 -10 17
-27 17 -65 0 -28 -2 -51 -5 -51 -10 0 -55 52 -55 64 0 8 8 17 17 20 12 5 14 9
5 18 -26 26 -9 37 21 14z m-1226 -28 c-3 -7 -5 -2 -5 12 0 14 2 19 5 13 2 -7
2 -19 0 -25z m1133 -1 c0 -5 7 -7 15 -3 8 3 15 1 15 -4 0 -6 -7 -10 -15 -10
-20 0 -19 -17 1 -28 11 -6 13 -11 5 -16 -8 -5 -8 -13 0 -28 7 -13 8 -23 1 -30
-15 -15 -31 -1 -25 22 6 23 -22 39 -40 21 -14 -14 -37 -15 -37 -1 0 6 6 10 13
10 9 0 12 10 9 31 -4 28 -2 30 17 24 12 -4 21 -2 21 4 0 6 -9 11 -20 11 -13 0
-18 5 -14 14 5 12 11 13 30 4 13 -6 24 -15 24 -21z m-1293 -44 c-3 -10 -5 -4
-5 12 0 17 2 24 5 18 2 -7 2 -21 0 -30z m239 20 c3 -10 10 -26 15 -35 21 -41
1 -60 -45 -42 -18 7 -22 44 -5 44 5 0 7 5 4 10 -9 14 1 40 15 40 6 0 13 -8 16
-17z m913 -5 c11 -22 11 -61 0 -72 -8 -8 -79 14 -79 24 0 5 10 10 23 12 16 2
23 11 25 31 4 33 15 35 31 5z m381 2 c0 -5 -4 -10 -10 -10 -5 0 -10 5 -10 10
0 6 5 10 10 10 6 0 10 -4 10 -10z m-1204 -15 c6 -16 -12 -45 -27 -45 -10 0
-12 44 -2 53 11 11 23 8 29 -8z m654 -31 c0 -8 -4 -12 -10 -9 -5 3 -10 10 -10
16 0 5 5 9 10 9 6 0 10 -7 10 -16z m-363 -35 c2 -26 -11 -24 -30 4 -15 23 -14
24 7 20 13 -3 22 -13 23 -24z m-102 11 c-3 -5 -10 -10 -16 -10 -5 0 -9 5 -9
10 0 6 7 10 16 10 8 0 12 -4 9 -10z m158 -10 c-3 -11 -9 -23 -14 -26 -10 -6
-12 29 -2 39 13 13 21 7 16 -13z m854 8 c12 -16 2 -120 -13 -125 -7 -2 -10 21
-10 67 1 70 5 81 23 58z m-991 -73 c-9 -23 -26 -9 -26 23 0 24 1 25 16 10 10
-9 14 -24 10 -33z m-839 -1 c-3 -3 -12 -4 -19 -1 -8 3 -5 6 6 6 11 1 17 -2 13
-5z m1323 -9 c0 -8 -4 -15 -9 -15 -13 0 -22 16 -14 24 11 11 23 6 23 -9z m295
-35 c3 -5 1 -10 -4 -10 -6 0 -11 5 -11 10 0 6 2 10 4 10 3 0 8 -4 11 -10z
m-229 -86 c-11 -27 -25 -4 -21 34 6 59 7 59 17 19 6 -20 7 -44 4 -53z m-1966
49 c0 -21 -3 -24 -9 -14 -5 8 -7 20 -4 28 8 21 13 15 13 -14z m1227 -5 c-1
-18 -8 -33 -15 -33 -6 0 -12 3 -12 8 0 4 0 18 0 32 0 15 6 25 15 25 11 0 14
-9 12 -32z m543 -39 c0 -10 -4 -19 -9 -19 -10 0 -21 36 -14 44 10 10 23 -5 23
-25z m617 -16 c-3 -10 -8 -34 -11 -54 -4 -19 -16 -46 -29 -60 -12 -13 -21 -27
-19 -31 1 -5 -7 -8 -18 -8 -11 0 -20 5 -20 10 0 13 -47 13 -52 0 -4 -12 -117
-17 -140 -6 -14 6 -18 4 -18 -9 0 -14 -6 -16 -26 -11 -33 9 -165 -4 -159 -14
3 -5 -19 -2 -47 6 -53 14 -74 12 -115 -8 -17 -8 -26 -8 -38 2 -11 9 -40 13
-83 12 -63 -2 -122 11 -122 28 0 4 -38 7 -84 6 -64 0 -82 -4 -79 -13 6 -15
-13 -18 -21 -4 -7 11 -86 19 -86 9 0 -5 -11 -8 -24 -8 -14 0 -36 -4 -49 -9
-22 -9 -25 -7 -30 17 -6 33 -8 32 36 34 40 1 48 15 36 60 -5 17 -3 30 3 34 16
10 38 -25 38 -59 0 -28 2 -29 38 -23 20 3 67 8 105 11 48 5 67 11 67 21 0 8 5
14 10 14 6 0 10 -7 10 -16 0 -12 7 -14 28 -10 15 3 107 13 205 22 97 10 177
21 177 24 0 4 11 5 23 3 24 -5 468 36 476 43 11 10 22 2 18 -13z m-1290 -25
c-3 -8 -6 -5 -6 6 -1 11 2 17 5 13 3 -3 4 -12 1 -19z m368 12 c3 -5 1 -10 -4
-10 -6 0 -11 5 -11 10 0 6 2 10 4 10 3 0 8 -4 11 -10z m-1405 -127 c9 -9 -65
9 -74 18 -5 4 8 3 30 -2 21 -6 41 -13 44 -16z m31 -56 c-1 -12 -15 -9 -19 4
-3 6 1 10 8 8 6 -3 11 -8 11 -12z m1884 -27 c3 -5 -1 -10 -10 -10 -9 0 -26
-11 -38 -24 -18 -20 -29 -23 -64 -19 -24 3 -40 9 -37 14 3 5 -9 9 -25 9 -17 0
-31 -4 -31 -10 0 -5 -6 -10 -14 -10 -8 0 -28 -17 -45 -37 -22 -26 -31 -32 -31
-20 0 9 5 26 12 37 14 22 3 39 -14 22 -7 -7 -23 -12 -38 -12 l-25 0 25 20 c17
14 42 20 80 20 30 1 84 7 120 15 80 16 127 18 135 5z m78 -7 c-7 -2 -21 -2
-30 0 -10 3 -4 5 12 5 17 0 24 -2 18 -5z m92 -21 c-3 -3 -11 0 -18 7 -9 10 -8
11 6 5 10 -3 15 -9 12 -12z m-715 -22 c-12 -8 -12 -10 2 -15 13 -5 15 -12 8
-29 -11 -29 -49 -85 -77 -114 -13 -12 -23 -34 -23 -49 0 -69 -38 -134 -53 -90
-2 8 -21 11 -54 10 l-50 -2 -6 42 c-3 23 -9 61 -13 83 l-6 41 78 8 c73 7 79 9
108 43 56 66 87 95 94 88 3 -4 0 -11 -8 -16z m830 0 c0 -5 -11 -26 -25 -46
-21 -32 -26 -34 -31 -18 -4 11 -16 28 -28 39 l-20 19 25 6 c38 10 79 10 79 0z
m-2222 -79 c19 -11 79 -36 102 -44 11 -3 8 -7 -10 -15 -14 -5 -38 -24 -54 -41
-34 -35 -51 -38 -78 -14 -23 21 -24 53 0 53 16 1 16 1 0 11 -26 14 -24 59 2
59 11 0 28 -4 38 -9z m1045 -93 c2 -26 1 -45 -4 -42 -5 3 -9 29 -8 57 1 59 5
54 12 -15z m472 6 c23 -23 15 -57 -17 -72 -15 -7 -57 -15 -93 -19 -58 -5 -65
-4 -65 12 0 9 17 35 39 56 32 32 45 39 79 39 24 0 47 -7 57 -16z m-442 -183
l6 -56 -13 61 c-7 33 -16 69 -19 78 -4 10 -4 23 0 29 8 14 19 -30 26 -112z
m343 -23 c7 -5 10 -18 7 -29 -6 -20 -6 -20 -29 2 -13 12 -24 25 -24 29 0 10
33 9 46 -2z m897 -95 c-7 -2 -19 -2 -25 0 -7 3 -2 5 12 5 14 0 19 -2 13 -5z
m418 -12 c37 -30 18 -33 -36 -6 -48 24 -49 24 -19 25 18 0 42 -9 55 -19z
m-1505 0 c16 -5 97 -31 179 -56 83 -26 195 -62 251 -81 115 -39 118 -39 110
-19 -5 14 30 42 41 31 19 -18 -128 -116 -175 -116 -10 0 -41 11 -69 24 -27 14
-67 28 -89 32 -21 4 -41 10 -44 14 -7 11 -148 60 -171 60 -10 0 -19 5 -19 10
0 6 -11 10 -24 10 -19 0 -25 7 -30 36 -4 19 -10 42 -13 50 -6 16 11 18 53 5z
m976 -23 c-18 -18 -15 -27 16 -39 25 -10 26 -12 7 -19 -29 -12 -35 -12 -35 5
0 8 -4 15 -10 15 -5 0 -10 6 -10 13 0 15 20 37 34 37 6 0 5 -5 -2 -12z m75
-64 c-3 -3 -12 -4 -19 -1 -8 3 -5 6 6 6 11 1 17 -2 13 -5z m-217 -14 c0 -5 -8
-10 -17 -10 -15 0 -16 2 -3 10 19 12 20 12 20 0z m170 -20 c0 -5 -4 -10 -10
-10 -5 0 -10 5 -10 10 0 6 5 10 10 10 6 0 10 -4 10 -10z m-987 -17 c-7 -2 -21
-2 -30 0 -10 3 -4 5 12 5 17 0 24 -2 18 -5z m85 -13 c6 0 12 -4 12 -10 0 -11
-59 -14 -86 -3 -16 6 -16 7 2 14 10 5 28 6 39 4 11 -3 26 -5 33 -5z m899 -16
c-9 -9 -28 6 -21 18 4 6 10 6 17 -1 6 -6 8 -13 4 -17z m-2237 0 c0 -8 -4 -12
-10 -9 -5 3 -10 10 -10 16 0 5 5 9 10 9 6 0 10 -7 10 -16z m118 -6 c7 -7 12
-32 12 -57 -1 -44 -1 -45 -14 -21 -18 33 -30 90 -19 90 5 0 14 -5 21 -12z
m1112 2 c0 -5 -2 -10 -4 -10 -3 0 -8 5 -11 10 -3 6 -1 10 4 10 6 0 11 -4 11
-10z m170 -10 c0 -5 -17 -10 -37 -9 -34 1 -35 2 -13 9 36 11 50 11 50 0z
m-127 -7 c-7 -2 -19 -2 -25 0 -7 3 -2 5 12 5 14 0 19 -2 13 -5z m162 -13 c-11
-5 -27 -9 -35 -9 -13 -1 -13 0 0 9 8 5 24 9 35 9 l20 0 -20 -9z m-112 -7 c-7
-2 -21 -2 -30 0 -10 3 -4 5 12 5 17 0 24 -2 18 -5z m167 -13 c-8 -5 -24 -9
-35 -9 l-20 0 20 9 c11 5 27 9 35 9 13 1 13 0 0 -9z m430 6 c0 -3 -4 -8 -10
-11 -5 -3 -10 -1 -10 4 0 6 5 11 10 11 6 0 10 -2 10 -4z m37 -48 c-2 -13 -4
-5 -4 17 -1 22 1 32 4 23 2 -10 2 -28 0 -40z m-584 35 c-7 -2 -19 -2 -25 0 -7
3 -2 5 12 5 14 0 19 -2 13 -5z m-90 -10 c-7 -2 -19 -2 -25 0 -7 3 -2 5 12 5
14 0 19 -2 13 -5z m252 -3 c-27 -12 -35 -12 -35 0 0 6 12 10 28 9 24 0 25 -1
7 -9z m347 -12 c-7 -7 -12 -8 -12 -2 0 14 12 26 19 19 2 -3 -1 -11 -7 -17z
m-1838 -13 c-4 -15 -2 -25 5 -25 6 0 11 -4 11 -9 0 -4 -11 -6 -24 -4 -23 5
-24 6 -7 34 20 35 23 36 15 4z m910 4 c-19 -22 -19 -22 9 -17 15 3 27 2 27 -2
0 -11 -27 -20 -59 -20 -16 0 -37 -10 -51 -25 -22 -23 -22 -25 -4 -26 14 0 12
-3 -9 -11 -15 -5 -25 -14 -22 -18 8 -13 -32 -32 -58 -28 -19 3 -18 5 13 20 32
16 33 18 10 18 -23 1 -23 2 -6 11 15 9 16 13 5 21 -11 8 -11 9 2 5 9 -3 27 4
40 16 27 26 100 75 113 76 5 1 1 -9 -10 -20z m459 14 c-7 -2 -19 -2 -25 0 -7
3 -2 5 12 5 14 0 19 -2 13 -5z m67 -13 c0 -5 -12 -10 -27 -10 -22 0 -25 2 -13
10 20 13 40 13 40 0z m140 4 c0 -7 -19 -24 -58 -52 -17 -12 -32 -18 -32 -13 0
5 15 18 33 30 l32 21 -27 0 c-16 0 -28 5 -28 10 0 6 18 10 40 10 22 0 40 -3
40 -6z m-107 -31 c-7 -2 -19 -2 -25 0 -7 3 -2 5 12 5 14 0 19 -2 13 -5z m327
3 c0 -2 -7 -6 -15 -10 -8 -3 -15 -1 -15 4 0 6 7 10 15 10 8 0 15 -2 15 -4z
m120 -36 c0 -13 -7 -20 -20 -20 -25 0 -25 9 -2 26 22 17 22 17 22 -6z m-968
-22 c-7 -7 -12 -8 -12 -2 0 14 12 26 19 19 2 -3 -1 -11 -7 -17z m678 2 c-6
-11 -16 -20 -22 -20 -6 0 -3 9 7 20 10 11 20 20 22 20 2 0 -1 -9 -7 -20z m110
10 c0 -5 -5 -10 -11 -10 -5 0 -7 5 -4 10 3 6 8 10 11 10 2 0 4 -4 4 -10z
m-293 -6 c-3 -3 -12 -4 -19 -1 -8 3 -5 6 6 6 11 1 17 -2 13 -5z m-1372 -24
c21 -11 41 -17 44 -13 3 3 0 8 -6 10 -7 3 -13 8 -13 12 0 8 118 -3 126 -12 3
-3 -4 -15 -15 -26 -15 -15 -28 -20 -46 -15 -14 3 -25 10 -25 15 0 5 -6 6 -12
4 -7 -3 -35 6 -63 19 -27 14 -45 25 -40 25 6 1 28 -8 50 -19z m1194 -1 c17 -6
31 -15 31 -19 0 -4 17 -11 38 -16 20 -4 30 -9 22 -11 -8 -2 -44 2 -80 10 -47
9 -66 18 -68 30 -4 20 12 22 57 6z m-327 -26 c-4 -1 -26 -7 -49 -12 -35 -7
-43 -6 -43 6 0 8 4 12 9 9 5 -3 24 0 42 8 25 11 36 11 41 3 4 -7 4 -13 0 -14z
m-272 -44 l-35 -20 43 3 c50 4 56 -8 10 -17 -66 -13 -98 -29 -98 -47 0 -13
-15 -22 -57 -34 -32 -9 -64 -21 -72 -28 -20 -16 -184 -96 -189 -92 -2 2 10 12
27 22 17 10 31 21 31 25 0 4 14 10 30 14 17 4 43 18 57 31 15 13 48 32 75 42
26 9 48 22 48 29 0 6 10 19 22 27 12 9 20 17 17 19 -2 2 -42 -4 -89 -14 -47
-10 -130 -25 -185 -35 -55 -9 -104 -20 -109 -25 -12 -11 -26 -12 -26 -1 0 12
52 32 86 32 18 0 45 5 61 11 15 6 78 22 138 36 61 13 126 28 145 33 19 4 51 8
70 8 l35 1 -35 -20z m619 10 c29 -10 32 -15 26 -38 -9 -35 -9 -35 -52 -18 -30
12 -38 20 -39 41 -1 29 14 33 65 15z m431 -43 c246 11 273 11 277 -2 6 -17
-63 -25 -275 -30 l-193 -5 -46 30 c-26 17 -50 31 -55 31 -4 0 -8 4 -8 9 0 5
28 -2 63 -16 61 -24 65 -25 237 -17z m398 17 c16 -4 20 -8 12 -13 -15 -9 -50
-1 -50 11 0 11 7 11 38 2z m-1098 -170 c24 -13 23 -14 -15 -8 -22 4 -47 13
-55 21 -13 14 -12 15 15 8 17 -4 41 -13 55 -21z m-131 -12 c53 -10 92 -34 78
-47 -4 -4 -27 -10 -52 -14 -52 -8 -89 9 -119 55 l-18 28 28 -6 c16 -3 53 -11
83 -16z m137 -56 c29 -15 17 -20 -23 -9 -13 4 -20 10 -17 15 7 12 7 12 40 -6z"/>
<path d="M2144 2267 c-3 -9 -1 -24 4 -34 6 -10 8 -32 6 -48 -2 -17 3 -8 10 19
13 42 13 51 0 63 -12 13 -15 13 -20 0z"/>
<path d="M1430 2269 c0 -5 5 -7 10 -4 6 3 10 8 10 11 0 2 -4 4 -10 4 -5 0 -10
-5 -10 -11z"/>
<path d="M2235 1420 c3 -5 16 -10 28 -10 18 0 19 2 7 10 -20 13 -43 13 -35 0z"/>
<path d="M1658 1383 c7 -3 16 -2 19 1 4 3 -2 6 -13 5 -11 0 -14 -3 -6 -6z"/>
<path d="M1548 1363 c6 -2 18 -2 25 0 6 3 1 5 -13 5 -14 0 -19 -2 -12 -5z"/>
<path d="M1396 1144 c-10 -25 1 -29 14 -5 6 12 7 21 1 21 -5 0 -12 -7 -15 -16z"/>
<path d="M745 3990 c4 -6 11 -8 16 -5 14 9 11 15 -7 15 -8 0 -12 -5 -9 -10z"/>
<path d="M1601 3996 c8 -8 528 -28 553 -22 14 3 26 11 26 16 0 6 -108 10 -292
10 -160 0 -289 -2 -287 -4z"/>
<path d="M2213 3978 c18 -28 57 -18 57 15 0 1 -15 2 -34 3 -30 0 -33 -2 -23
-18z"/>
<path d="M3359 3968 l5 -33 6 30 7 30 5 -35 5 -35 1 38 c2 30 -2 37 -16 37
-15 0 -18 -6 -13 -32z"/>
<path d="M2276 3975 c-3 -9 0 -15 8 -15 7 0 19 -7 26 -16 8 -8 25 -14 39 -12
23 3 26 -1 29 -35 5 -59 22 -33 22 34 l0 59 -59 0 c-43 0 -60 -4 -65 -15z"/>
<path d="M2740 3920 c0 -5 5 -10 10 -10 6 0 10 5 10 10 0 6 -4 10 -10 10 -5 0
-10 -4 -10 -10z"/>
<path d="M2606 3851 c-5 -8 2 -41 9 -41 1 0 20 7 41 16 34 15 37 18 19 25 -28
11 -63 11 -69 0z"/>
<path d="M2740 3846 c0 -12 6 -13 30 -5 17 6 30 13 30 15 0 2 -13 4 -30 4 -20
0 -30 -5 -30 -14z"/>
<path d="M2815 3800 l-80 -5 0 -130 c0 -71 2 -143 4 -158 3 -27 4 -27 29 -11
14 9 48 19 75 23 28 3 52 11 54 18 3 9 -14 10 -65 6 -42 -3 -72 -2 -75 4 -10
16 29 45 65 49 59 7 72 11 76 24 4 10 -10 12 -66 7 -40 -3 -73 -3 -76 1 -8 13
45 65 55 55 14 -14 89 7 89 25 0 11 -15 12 -75 7 -81 -8 -90 -2 -50 35 20 19
31 22 63 16 29 -4 43 -2 52 9 21 25 7 30 -75 25z m62 -26 c-3 -3 -12 -4 -19
-1 -8 3 -5 6 6 6 11 1 17 -2 13 -5z"/>
<path d="M2623 3780 c-24 -10 -31 -44 -12 -56 6 -3 16 -1 22 5 6 6 20 11 32
11 20 0 49 33 38 44 -9 9 -54 6 -80 -4z"/>
<path d="M2607 3693 c-10 -9 -9 -41 1 -47 15 -9 83 17 93 36 9 16 5 18 -39 18
-27 0 -52 -3 -55 -7z"/>
<path d="M2607 3590 c-7 -27 3 -31 48 -19 l39 11 -33 14 c-43 18 -48 18 -54
-6z"/>
<path d="M812 3550 c1 -14 -1 -31 -6 -38 -4 -7 -2 -12 3 -12 6 0 11 6 11 13 0
8 3 7 10 -3 8 -13 11 -12 24 5 13 17 18 18 35 7 19 -11 21 -10 21 12 0 31 -15
41 -62 41 -34 0 -38 -2 -36 -25z"/>
<path d="M2610 3505 c0 -26 14 -33 26 -14 3 6 15 9 25 6 33 -9 30 11 -3 22
-44 15 -48 14 -48 -14z"/>
<path d="M2830 3451 c-22 -7 -20 -8 17 -12 29 -3 44 0 47 8 6 14 -23 16 -64 4z"/>
<path d="M2610 3431 c0 -23 22 -40 28 -23 2 7 13 12 25 12 19 0 19 2 -7 15
-37 20 -46 19 -46 -4z"/>
<path d="M2742 3405 c-2 -29 1 -45 9 -45 8 0 8 -4 -1 -15 -7 -9 -11 -17 -9
-19 7 -6 49 13 49 22 0 5 13 7 30 4 38 -5 83 6 75 18 -4 6 -34 7 -76 4 -59 -6
-69 -5 -69 9 0 8 11 24 25 35 32 25 32 32 -2 32 -26 0 -28 -3 -31 -45z"/>
<path d="M2617 3363 c-4 -3 -7 -15 -7 -25 0 -19 10 -21 50 -8 17 6 19 8 7 9
-10 1 -20 8 -23 16 -7 16 -17 19 -27 8z"/>
<path d="M2320 3320 c0 -19 3 -21 12 -12 9 9 9 15 0 24 -9 9 -12 7 -12 -12z"/>
<path d="M2815 3291 c-68 -6 -70 -7 -73 -35 l-4 -29 27 22 c21 15 42 21 81 21
41 0 54 4 54 15 0 8 -3 14 -7 13 -5 -1 -39 -4 -78 -7z"/>
<path d="M2317 3248 c-4 -27 -3 -144 2 -220 0 -10 8 -18 16 -18 12 0 14 11 10
59 -4 33 -7 94 -8 135 -2 79 -11 99 -20 44z"/>
<path d="M2610 3254 c0 -21 3 -25 18 -19 9 4 25 10 35 12 15 5 14 8 -9 19 -37
20 -44 18 -44 -12z"/>
<path d="M2282 3230 c-7 -11 -19 -20 -28 -20 -14 0 -15 -7 -10 -42 8 -47 19
-64 35 -54 8 5 6 17 -5 37 -17 35 -12 64 11 55 11 -4 15 2 15 19 0 30 -2 31
-18 5z"/>
<path d="M2805 3203 c-27 -3 -45 -11 -53 -23 -11 -17 -10 -20 7 -20 11 0 23 5
26 10 3 6 24 10 45 10 44 0 70 8 70 21 0 9 -16 9 -95 2z"/>
<path d="M2610 3175 c0 -26 9 -32 26 -16 5 5 18 11 29 14 18 4 18 5 -2 6 -13
0 -23 6 -23 11 0 6 -7 10 -15 10 -9 0 -15 -9 -15 -25z"/>
<path d="M2145 3150 c16 -130 15 -132 -16 -104 -14 13 -17 26 -12 65 6 47 5
49 -20 49 -20 0 -24 -4 -20 -20 6 -21 -11 -28 -23 -9 -5 8 -10 6 -16 -6 -11
-19 5 -45 16 -26 13 20 36 12 36 -13 0 -14 5 -28 10 -31 20 -12 -1 -24 -25
-15 -29 11 -35 -5 -10 -24 16 -12 20 -34 17 -103 -1 -31 -6 -43 -17 -43 -8 0
-15 -7 -15 -15 0 -9 -9 -15 -25 -15 -20 0 -24 -4 -21 -22 3 -13 5 -27 5 -32 1
-6 10 0 20 11 11 11 42 35 70 54 54 34 57 39 41 69 -7 13 -7 26 0 40 5 11 14
28 19 39 14 28 11 147 -5 168 -12 16 -13 14 -9 -17z"/>
<path d="M2610 3108 c0 -25 16 -33 50 -28 l35 5 -34 18 c-40 20 -51 21 -51 5z"/>
<path d="M2839 3115 c-3 -2 -30 -5 -60 -6 -29 -1 -48 -4 -41 -7 6 -2 12 -11
12 -19 0 -14 3 -13 25 1 13 9 44 16 69 16 25 0 48 5 51 10 6 10 -47 15 -56 5z"/>
<path d="M850 3051 c0 -6 5 -13 10 -16 6 -3 10 1 10 9 0 9 -4 16 -10 16 -5 0
-10 -4 -10 -9z"/>
<path d="M2232 2980 c0 -14 2 -19 5 -12 2 6 2 18 0 25 -3 6 -5 1 -5 -13z"/>
<path d="M141 2704 c0 -11 3 -14 6 -6 3 7 2 16 -1 19 -3 4 -6 -2 -5 -13z"/>
<path d="M506 2702 c-2 -4 -1 -14 5 -22 7 -12 9 -10 9 8 0 23 -5 28 -14 14z"/>
<path d="M3453 2480 c0 -47 2 -66 4 -42 2 23 2 61 0 85 -2 23 -4 4 -4 -43z"/>
<path d="M800 2206 c0 -17 5 -26 16 -26 10 0 14 7 12 22 -5 32 -28 35 -28 4z"/>
</g>
</svg>
